<?xml version="1.0" standalone="no"?>
<!DOCTYPE svg PUBLIC "-//W3C//DTD SVG 20010904//EN"
 "http://www.w3.org/TR/2001/REC-SVG-20010904/DTD/svg10.dtd">
<svg version="1.0" xmlns="http://www.w3.org/2000/svg"
 width="2500.000000pt" height="2500.000000pt" viewBox="0 0 2500.000000 2500.000000"
 preserveAspectRatio="xMidYMid meet">
<metadata>
Created by potrace 1.14, written by Peter Selinger 2001-2017
</metadata>
<g transform="translate(0.000000,2500.000000) scale(0.100000,-0.100000)"
fill="#000000" stroke="none">
<path d="M8998 22595 c-2 -2 -60 -6 -129 -9 -70 -4 -137 -9 -150 -11 -13 -2
-55 -6 -92 -10 -37 -3 -76 -8 -85 -10 -9 -1 -44 -6 -77 -10 -33 -3 -82 -11
-110 -16 -27 -5 -66 -12 -85 -15 -32 -5 -243 -50 -282 -60 -10 -2 -28 -6 -40
-9 -114 -25 -371 -104 -553 -170 -216 -78 -559 -236 -745 -342 -385 -220 -747
-488 -1035 -766 l-100 -96 1152 -1152 1152 -1153 53 50 c301 282 693 463 1113
512 79 9 375 9 445 0 136 -18 160 -23 262 -49 465 -118 884 -418 1151 -824
132 -202 244 -476 283 -695 3 -14 9 -49 14 -79 10 -53 23 -219 23 -296 1 -51
-13 -247 -17 -254 -2 -3 -7 -31 -10 -61 -4 -30 -13 -79 -20 -108 -8 -29 -14
-53 -14 -55 0 -1 -5 -22 -12 -47 -73 -279 -254 -602 -454 -808 l-51 -52 1152
-1152 1151 -1151 81 71 c85 76 206 168 256 196 17 9 53 30 80 46 182 108 406
189 645 232 191 34 488 31 687 -6 263 -50 542 -166 753 -314 132 -92 270 -219
399 -366 187 -213 385 -649 417 -919 2 -25 7 -56 11 -68 14 -56 12 -435 -3
-524 -21 -129 -21 -126 -44 -222 -64 -253 -186 -500 -356 -720 -44 -56 -797
-816 -2070 -2091 l-2002 -2002 -1961 1961 -1961 1961 -1151 -1151 c-1024
-1024 -1150 -1153 -1138 -1168 8 -9 1408 -1410 3112 -3114 l3097 -3097 3148
3148 c1731 1731 3174 3176 3207 3211 92 99 140 154 225 259 19 24 47 57 62 74
15 17 28 34 28 38 0 4 6 13 13 20 7 7 42 54 78 103 411 564 711 1231 863 1920
29 131 63 320 71 390 3 28 8 57 10 65 3 13 11 77 20 175 27 272 27 753 -1
1025 -5 55 -50 377 -58 415 -2 11 -7 40 -12 65 -4 25 -8 47 -9 50 -1 3 -5 21
-9 40 -64 287 -178 669 -251 835 -7 17 -39 90 -70 164 -56 133 -225 472 -249
501 -7 8 -16 22 -20 30 -25 59 -172 287 -280 435 -178 244 -315 405 -536 626
-405 405 -809 703 -1300 956 -100 52 -163 81 -345 163 -139 62 -422 160 -675
234 -74 21 -344 83 -400 91 -25 3 -63 10 -85 15 -22 5 -62 12 -90 15 -27 3
-59 8 -70 10 -33 7 -168 22 -270 30 -38 3 -92 8 -120 10 -27 2 -83 5 -122 6
-40 1 -73 4 -74 8 0 3 -2 44 -4 91 -6 109 -15 236 -20 275 -2 17 -7 59 -10 95
-7 71 -11 107 -25 190 -5 30 -12 71 -15 90 -3 19 -10 60 -16 90 -6 30 -13 69
-15 85 -3 17 -25 109 -49 205 -50 198 -91 336 -143 480 -3 8 -6 20 -8 25 -20
81 -268 639 -294 665 -3 3 -11 16 -17 30 -7 14 -28 52 -48 85 -19 33 -40 71
-47 85 -7 14 -22 39 -32 55 -11 17 -35 55 -54 85 -213 340 -438 618 -741 920
-103 102 -200 196 -217 210 -17 14 -53 44 -80 67 -108 91 -200 167 -224 182
-14 8 -52 36 -85 62 -301 231 -772 486 -1225 662 -138 53 -494 162 -630 193
-19 4 -39 9 -45 10 -5 1 -21 4 -35 7 -14 3 -59 12 -100 21 -94 19 -297 53
-370 61 -30 3 -66 8 -80 10 -14 2 -63 6 -110 10 -47 4 -103 9 -125 12 -40 5
-552 12 -557 8z"/>
</g>
</svg>
